# xmcd
#
# Track frame offsets: 
#        150
#        12970
#        29985
#        42817
#        58495
#        70922
#        82482
#        95210
#        107510
#        121500
#
# Disc length: 1754 seconds
#
# Revision: 0
# Processed by: cddbd v1.4PL0 Copyright (c) Steve Scherf et al.
# Submitted via: ExactAudioCopy v0.90b4
#
DISCID=8f06d80a
DTITLE=Jimmy Witherspoon - Evenin' Blues
DYEAR=1963
DGENRE=Blues
TTITLE0=Money's Gettin' Cheaper
TTITLE1=Grab Me A Freight
TTITLE2=Don't Let Go
TTITLE3=I've Been Treated Wrong
TTITLE4=Evenin'
TTITLE5=Cane River
TTITLE6=Baby, How Long
TTITLE7=Good Rockin' Man
TTITLE8=Kansas City
TTITLE9=Drinkin' Beer
EXTD=
EXTT0=
EXTT1=
EXTT2=
EXTT3=
EXTT4=
EXTT5=
EXTT6=
EXTT7=
EXTT8=
EXTT9=
PLAYORDER=
